# xmcd
# 
# Track frame offsets:
#     150
#     14576
#     28996
#     44946
#     60835
#     75588
#     92075
#     103786
#     117251
#     131258
#     145273
#     157996
#     173723
#     188784
#     201847
#     214008
#     227472
#     242170
#     255065
#     270085
#     283703
#     296889
#     309952
#     322372
#     335214
# 
# Disc length: 4655
# 
# Revision: 8
# Processed by: cddbd v1.5.2PL0 Copyright (c) Steve Scherf et al.
# Submitted via: fre:ac v1.0.31
# 
DISCID=6a122d19
DTITLE=Blues - When The Sun Goes Down - Volume 2 The First Time I Met The Blues
DYEAR=2002
DGENRE=Blues
TTITLE0=Victoria Spivey - Telephoning The Blues (mono)
TTITLE1=Gus Cannon's Jug Stompers - Viola Lee Blues (mono)
TTITLE2=Genevieve Davis - Haven't Got A Dollar To Pay Your House Rent Man (mono)
TTITLE3=Ishman Bracey - Saturday Blues (mono)
TTITLE4=Jim Jackson - When I Woke Up This Morning She Was Gone (mono)
TTITLE5=Tommy Johnson - Canned Heat Blues (mono)
TTITLE6=Blind Willie McTell - Statesboro Blues (mono)
TTITLE7=Memphis Jug Band - Stealin', Stealin' (mono)
TTITLE8=Furry Lewis - Judge Harsh Blues (mono)
TTITLE9=Edna Winston - Rent Man Blues (mono)
TTITLE10=Harris and Harris - I Don't Care What You Say (mono)
TTITLE11=Lizzie Miles - I Hate A Man Like You (mono)
TTITLE12=Frank Stokes - Tain't Nobody's Business If I Do, Part 1 (mono)
TTITLE13=Sippie Wallace - I'm A Mighty Tight Woman (mono)
TTITLE14=Jimmie Rodgers - Blue Yodel No. 9 (mono)
TTITLE15=Sleepy John Estes - The Girl I Love, She Got Long, Curly Hair (mono)
TTITLE16=McCoy and Johnson - Don't Want No Woman (mono)
TTITLE17=Memphis Jug Band - Cocaine Habit Blues (mono)
TTITLE18=Blind Willie Reynolds - Married Woman Blues (mono)
TTITLE19=Jimmie Davis - Red Nightgown Blues (mono)
TTITLE20=Mississippi Matilda - Hardworking Woman (mono)
TTITLE21=Bo Carter - Doubled Up In A Knot (mono)
TTITLE22=Daddy Stovepipe and Mississippi Sarah - If You Want Me, Baby (mono)
TTITLE23=Little Brother Montgomery - The First Time I Met The Blues (mono)
TTITLE24=The Mississippi Sheiks - Sales Tax (mono)
EXTD=
EXTT0=
EXTT1=
EXTT2=
EXTT3=
EXTT4=
EXTT5=
EXTT6=
EXTT7=
EXTT8=
EXTT9=
EXTT10=
EXTT11=
EXTT12=
EXTT13=
EXTT14=
EXTT15=
EXTT16=
EXTT17=
EXTT18=
EXTT19=
EXTT20=
EXTT21=
EXTT22=
EXTT23=
EXTT24=
PLAYORDER=
